# xmcd CD database file
#
# Track frame offsets:
#	150
#	32727
#	62200
#	89700
#	121097
#	146192
#
# Disc length: 2271 seconds
#
# Revision: 4
# Processed by: cddbd v1.5PL3 Copyright (c) Steve Scherf et al.
# Submitted via: CDex 1.51
#
DISCID=5608dd06
DTITLE=The Dukes of Dixieland - The Best of The Dukes of Dixieland
DYEAR=1900
DGENRE=Jazz
TTITLE0=Original Dixieland One Step
TTITLE1=Wolverine Blues
TTITLE2=Royal Garden Blues
TTITLE3=The Saints March
TTITLE4=Canal Street Blues
TTITLE5=New Orleans Ceremony
EXTD=
EXTT0=
EXTT1=
EXTT2=
EXTT3=
EXTT4=
EXTT5=
PLAYORDER=
